<svg xmlns="http://www.w3.org/2000/svg" viewBox="0 0 195 86"><path fill="#E4002B" stroke="#202124" stroke-width="6.378" stroke-linejoin="round" d="M75.8 3.2h59.5c.8 0 1.8.4 2.6 1.3l21.9 25.3c.4.4.8.7 1.4.9l27.7 9.6c.7.2 1.5.8 2 1.7.6.9.9 2.1.9 3.4v20.5H56V42.7c0-7.2 2.1-14.3 5.9-20.4L72.8 5.1c.4-.7.9-1.1 1.4-1.4.5-.4 1-.5 1.6-.5z"></path><path fill="#FFF" d="M142.5 30.5h-31V14.2h22.4l9.7 12.2c1.2 1.5.5 4.1-1.1 4.1zM97.1 14.2v16.3h-26l3.4-8.1 2.4-5.7c.6-1.5 1.8-2.4 5-2.4h15.2v-.1z"></path><path fill="#FFF" stroke="#202124" stroke-width="4.784" d="M142.5 30.5h-31V14.2h22.4l9.7 12.2c1.2 1.5.5 4.1-1.1 4.1zM97.1 30.5h-26l3.4-8.1 2.4-5.7c.6-1.5 1.8-2.4 5-2.4h15.2v16.2z"></path><circle fill="#FFF" stroke="#202124" stroke-width="9.568" cx="85.3" cy="67" r="13.5"></circle><circle fill="#FFF" stroke="#202124" stroke-width="9.568" cx="160.5" cy="67" r="13.5"></circle><path fill="#202124" d="M111.7 44.7h12.2c1.1 0 2 .9 2 2s-.9 2-2 2h-12.2c-1.1 0-2-.9-2-2s.9-2 2-2zM12.2 24.4h24.4c1.1 0 2 .9 2 2s-.9 2-2 2H12.2c-1.1 0-2-.9-2-2s.9-2 2-2zM44.7 24.4h4.1c1.1 0 2 .9 2 2s-.9 2-2 2h-4.1c-1.1 0-2-.9-2-2s.9-2 2-2zM22.3 34.5h22.3c1.1 0 2 .9 2 2s-.9 2-2 2H22.3c-1.1 0-2-.9-2-2s.9-2 2-2zM2 34.5h12.2c1.1 0 2 .9 2 2s-.9 2-2 2H2c-1.1 0-2-.9-2-2s.9-2 2-2zM4.1 44.7h40.6c1.1 0 2 .9 2 2s-.9 2-2 2H4.1c-1.1 0-2-.9-2-2-.1-1.1.8-2 2-2z"></path></svg>