<svg xmlns="http://www.w3.org/2000/svg" viewBox="0 0 85.4 150.5"><path fill="#202124" d="M31.3 126.7v-4c0-1.1.9-2 2-2s2 .9 2 2v4c0 1.1-.9 2-2 2s-2-.9-2-2zM43.7 150.5c-1.1 0-2-.9-2-2v-23.7c0-1.1.9-2 2-2s2 .9 2 2v23.7c-.1 1.1-.9 2-2 2zM33.3 146.5c-1.1 0-2-.9-2-2v-10c0-1.1.9-2 2-2s2 .9 2 2v10c0 1.1-.9 2-2 2zM53.6 141.1c-1.1 0-2-.9-2-2v-15.9c0-1.1.9-2 2-2s2 .9 2 2v15.9c-.1 1.1-1 2-2 2z"></path><path fill="#FFF" d="M64.5 116.7H10.9c-2.8 0-5.2-1.1-7-3.2-1.7-1.8-2.8-4.7-2.4-7.2L5 42.5c.3-5.4 4.5-9.3 9.4-9.3H68c2.8 0 5.2 1.1 7 3.2 1.7 1.8 2.8 4.7 2.4 7.2l-3.5 63.8c0 5-4.2 9.3-9.4 9.3z"></path><path fill="#E4002B" d="M16.5 111.5H3.6l4.2-70.8.6-4.1 2.3-1h10l-4.2 75.9zM81.5 108.7l-12.2 2.8H56.9l4.5-75.9h12.5l7.6 73.1z"></path><path fill="#202124" stroke="#202124" stroke-width=".439" d="M4.8 42.5l-3.5 63.8c-.4 2.6.7 5.5 2.5 7.3 1.8 2.2 4.3 3.3 7.1 3.3h53.6c5.3 0 9.6-4.4 9.6-9.5l3.5-63.8c.4-2.6-.7-5.5-2.5-7.3-1.8-2.2-4.3-3.3-7.1-3.3H14.4c-5-.1-9.3 4-9.6 9.5zm5.6 0c0-2.4 1.6-4.1 4-4.1H68c1 0 2.3.4 2.9 1.3.3.3.6.8.7 1.4.2.6.3 1.2.3 1.7l-3.5 63.8c0 2.4-1.6 4.1-4 4.1H10.9c-1 0-2.3-.4-2.9-1.3-.3-.3-.6-.8-.7-1.4-.2-.6-.3-1.2-.3-1.7l3.4-63.8z"></path><path fill="#202124" stroke="#202124" stroke-width=".439" d="M62.4 111.3h-.2v.2l.7 5.2v.2h1.3c1.1 0 2.1-.1 3.2-.3 3.3-.7 8.8-2 12.4-3.2 2.2-.7 3.3-2.1 3.9-3.5.6-1.4.6-2.8.5-3.7L77.6 41v-.2h-5.2v.2l6.2 65.9c.1.7-.1 1.1-.4 1.4-.3.3-.6.4-.8.4l-15 2.6z"></path><path fill="#202124" stroke="#202124" stroke-width="2.067" d="M55.1 8.3c-4.4-4.4-10.3-6.9-16.5-6.9-10.9 0-19.8 8.9-19.8 19.8V40c0 3.7 3.1 6.8 6.8 6.8 1 0 1.9-.2 2.7-.6 1.2 2.1 3.4 3.5 5.9 3.5 1 0 1.9-.2 2.7-.6 1.2 2.1 3.4 3.5 5.9 3.5s4.7-1.4 5.9-3.5c.8.4 1.8.6 2.7.6 3.7 0 6.8-3.1 6.8-6.8v-6.2l2.5-2.5c2.1-2.1 3.3-4.9 3.3-7.9V22c0-3-1.1-5.8-3.3-7.9l-5.6-5.8zm3.3 21.2c-.2-1.2-1.2-2-2.4-2-1.4 0-2.5 1.1-2.5 2.5v13c0 1-.8 1.9-1.9 1.9s-1.9-.8-1.9-1.9v-4.3c0-1.4-1.1-2.5-2.5-2.5s-2.5 1.1-2.5 2.5v7.2c0 1-.8 1.9-1.9 1.9-1 0-1.9-.8-1.9-1.9v-7.2c0-1.4-1.1-2.5-2.5-2.5s-2.5 1.1-2.5 2.5V43c0 1-.8 1.9-1.9 1.9-1 0-1.9-.8-1.9-1.9v-4.3c0-1.4-1.1-2.5-2.5-2.5s-2.5 1.1-2.5 2.5V40c0 1-.8 1.9-1.9 1.9-1 0-1.9-.8-1.9-1.9V21.3c0-8.2 6.7-14.8 14.8-14.8 4.9 0 9.5 1.9 13 5.4l5.8 5.8c1.2 1.2 1.8 2.7 1.8 4.4v4.4c.5 1 .2 2-.3 3z"></path><path fill="#FFF" d="M57.4 32.2l.8-.8c1.4-1.4 2.1-3.2 2.1-5.1V22c0-1.9-.8-3.8-2.1-5.1l-5.8-5.8c-3.7-3.7-8.6-5.7-13.8-5.7-8.7 0-15.9 7.1-15.9 15.9V40c0 1.6 1.3 2.9 2.9 2.9 1.6 0 2.9-1.3 2.9-2.9v-1.4c0-.8.6-1.4 1.4-1.4s1.4.6 1.4 1.4v4.3c0 1.6 1.3 2.9 2.9 2.9 1.6 0 2.9-1.3 2.9-2.9v-4.3c0-.8.6-1.4 1.4-1.4s1.4.6 1.4 1.4v7.2c0 1.6 1.3 2.9 2.9 2.9 1.6 0 2.9-1.3 2.9-2.9v-7.2c0-.8.6-1.4 1.4-1.4s1.4.6 1.4 1.4v4.3c0 1.6 1.3 2.9 2.9 2.9 1.6 0 2.9-1.3 2.9-2.9v-13c0-.8.6-1.4 1.4-1.4.8 0 1.4.6 1.4 1.4v2.3z"></path></svg>